<svg width="1102" height="772" viewBox="0 0 1102 772" fill="none" xmlns="http://www.w3.org/2000/svg">
<path d="M801.617 699.09H240.699L469.915 155.116H572.401L801.617 699.09Z" fill="#D0F0E4"/>
<path d="M511.438 114.187L521.158 104.472L530.878 114.187" stroke="#FFCF2D" stroke-width="6" stroke-miterlimit="10"/>
<path d="M521.158 104.472V71.9363" stroke="#FFCF2D" stroke-width="6" stroke-miterlimit="10"/>
<path d="M521.158 172.078C529.8 172.078 536.806 165.076 536.806 156.438C536.806 147.8 529.8 140.798 521.158 140.798C512.515 140.798 505.509 147.8 505.509 156.438C505.509 165.076 512.515 172.078 521.158 172.078Z" fill="#FFCF2D" stroke="white" stroke-width="6" stroke-miterlimit="10"/>
<path d="M572.401 155.116H469.937L471.303 148.882C475.8 128.351 496.76 113.46 521.18 113.46C533.39 113.46 544.741 117.183 553.579 123.461C562.439 129.739 568.786 138.595 571.034 148.86L572.401 155.116Z" stroke="#9A3B82" stroke-width="6" stroke-miterlimit="10" stroke-linecap="round"/>
<path d="M679.074 505.943H668.672V571.588H679.074V505.943Z" fill="#66B0F0"/>
<path d="M867.979 571.588H808.758C806.62 571.588 804.967 569.738 805.231 567.623L813.474 498.079C813.695 496.295 815.215 494.951 817.001 494.951H876.222C878.36 494.951 880.013 496.801 879.749 498.916L871.506 568.46C871.285 570.245 869.765 571.588 867.979 571.588Z" fill="#9A3B82"/>
<path d="M835.713 571.588H788.944C786.079 571.588 783.853 569.077 784.183 566.235L790.178 515.592C790.465 513.191 792.514 511.362 794.939 511.362H842.832L835.713 571.588Z" fill="white" stroke="#FFCF2D" stroke-width="6" stroke-miterlimit="10"/>
<path d="M840.958 571.588H796.327C793.462 571.588 791.236 569.077 791.567 566.235L797.561 515.592C797.848 513.191 799.898 511.362 802.322 511.362H847.526C848.959 511.362 850.083 512.618 849.906 514.05L843.339 569.452C843.206 570.685 842.17 571.588 840.958 571.588Z" fill="white" stroke="#FFCF2D" stroke-width="6" stroke-miterlimit="10"/>
<path d="M697.786 515.812H679.736V571.588H697.786V515.812Z" stroke="#9A3B82" stroke-width="6" stroke-miterlimit="10" stroke-linecap="round"/>
<path d="M716.917 515.812H691.505V571.588H716.917V515.812Z" stroke="#9A3B82" stroke-width="6" stroke-miterlimit="10" stroke-linecap="round"/>
<path d="M747.707 571.588H740.676L714.515 509.688H721.546L747.707 571.588Z" stroke="#9A3B82" stroke-width="6" stroke-miterlimit="10" stroke-linecap="round"/>
<path d="M761.107 571.588H748.016L725.491 519.094H738.582L761.107 571.588Z" stroke="#9A3B82" stroke-width="6" stroke-miterlimit="10" stroke-linecap="round"/>
<path d="M668.01 515.812H649.805V571.588H668.01V515.812Z" stroke="#9A3B82" stroke-width="6" stroke-miterlimit="10" stroke-linecap="round"/>
<path d="M734.483 473.054H649.805V483.937H734.483V473.054Z" stroke="#9A3B82" stroke-width="6" stroke-miterlimit="10" stroke-linecap="round"/>
<path d="M757.074 464.728H649.805V473.495H757.074V464.728Z" fill="#FE5244"/>
<path d="M722.207 452.083H649.805V464.508H722.207V452.083Z" fill="#FFCF2D"/>
<path d="M734.483 442.589H649.805V451.863H734.483V442.589Z" stroke="#9A3B82" stroke-width="6" stroke-miterlimit="10" stroke-linecap="round"/>
<path d="M880.586 418.137L880.52 418.512L870.514 483.937H777.681L787.688 418.512L787.82 417.587C789.407 414.37 799.104 411.881 810.852 411.881C823.701 411.881 834.104 414.855 834.104 418.512C834.104 414.855 844.507 411.881 857.356 411.881C869.765 411.903 879.881 414.657 880.586 418.137Z" fill="white" stroke="#FFCF2D" stroke-width="6" stroke-miterlimit="10"/>
<path d="M824.208 483.959L834.126 418.534" stroke="#FFCF2D" stroke-width="6" stroke-miterlimit="10"/>
<path d="M824.208 483.959C824.208 480.302 813.805 477.328 800.956 477.328C788.106 477.328 777.703 480.302 777.703 483.959H824.208Z" fill="#FFCF2D"/>
<path d="M870.712 483.959C870.712 480.302 860.309 477.328 847.46 477.328C834.611 477.328 824.208 480.302 824.208 483.959H870.712Z" fill="#FFCF2D"/>
<path d="M824.56 482.571C824.428 478.914 834.721 475.588 847.57 475.125C855.593 474.839 863.505 475.962 867.671 477.57L877.589 415.252" stroke="#FFCF2D" stroke-width="6" stroke-miterlimit="10" stroke-linecap="round"/>
<path d="M873.181 396.307H789.825V377.759C789.825 375.931 791.302 374.455 793.131 374.455H869.897C871.726 374.455 873.203 375.931 873.203 377.759V396.307H873.181Z" fill="white" stroke="#9A3B82" stroke-width="6" stroke-miterlimit="10" stroke-linecap="round"/>
<path d="M879.837 373.574H808.008C806.884 373.574 806.003 372.67 806.003 371.569V364.189C806.003 363.066 806.906 362.185 808.008 362.185H879.837C880.961 362.185 881.842 363.088 881.842 364.189V371.569C881.842 372.67 880.939 373.574 879.837 373.574Z" fill="#FFCF2D"/>
<path d="M882.636 355.268H797.429V362.185H882.636V355.268Z" fill="#FE5244"/>
<path d="M881.093 355.268H816.053C815.193 355.268 814.51 354.563 814.51 353.726V348.153C814.51 347.293 815.216 346.611 816.053 346.611H881.093C881.953 346.611 882.636 347.315 882.636 348.153V353.726C882.636 354.563 881.953 355.268 881.093 355.268Z" fill="white" stroke="#9A3B82" stroke-width="6" stroke-miterlimit="10" stroke-linecap="round"/>
<path d="M702.172 328.261H677.157V396.307H702.172V328.261Z" stroke="#9A3B82" stroke-width="6" stroke-miterlimit="10" stroke-linecap="round"/>
<path d="M677.157 328.261H667.063V396.307H677.157V328.261Z" fill="white" stroke="#9A3B82" stroke-width="6" stroke-miterlimit="10" stroke-linecap="round"/>
<path d="M667.063 328.261H650.092V396.307H667.063V328.261Z" fill="white" stroke="#9A3B82" stroke-width="6" stroke-miterlimit="10" stroke-linecap="round"/>
<path d="M727.408 340.553H705.478V396.329H727.408V340.553Z" stroke="#9A3B82" stroke-width="6" stroke-miterlimit="10" stroke-linecap="round"/>
<path d="M707.065 396.307H698.425C697.588 396.307 696.883 395.624 696.883 394.765V342.051C696.883 341.214 697.566 340.509 698.425 340.509H707.065C707.903 340.509 708.608 341.192 708.608 342.051V394.765C708.586 395.624 707.903 396.307 707.065 396.307Z" fill="white" stroke="#9A3B82" stroke-width="6" stroke-miterlimit="10" stroke-linecap="round"/>
<path d="M727.408 340.553V371.128L715.529 340.553H727.408Z" fill="#9A3B82"/>
<path d="M778.188 396.307H743.101C742.329 396.307 741.624 395.822 741.36 395.117L718.57 336.477C718.085 335.244 718.989 333.922 720.311 333.922H755.399C756.17 333.922 756.876 334.407 757.14 335.112L779.93 393.752C780.414 394.985 779.511 396.307 778.188 396.307Z" fill="white" stroke="#FFCF2D" stroke-width="6" stroke-miterlimit="10"/>
<path d="M783.919 396.307H748.831C748.06 396.307 747.354 395.822 747.09 395.117L724.301 336.477C723.816 335.244 724.719 333.922 726.042 333.922H761.129C761.901 333.922 762.606 334.407 762.871 335.112L785.66 393.752C786.145 394.985 785.241 396.307 783.919 396.307Z" fill="white" stroke="#FFCF2D" stroke-width="6" stroke-miterlimit="10"/>
<path d="M845.543 293.786C842.259 294.711 838.776 295.218 835.206 295.218C814.334 295.218 797.429 278.322 797.429 257.461C797.429 240.257 808.956 225.718 824.715 221.18L845.543 293.786Z" stroke="#FFCF2D" stroke-width="6" stroke-miterlimit="10"/>
<path d="M835.206 295.218V308.677" stroke="#FFCF2D" stroke-width="6" stroke-miterlimit="10"/>
<path d="M835.206 289.446C852.88 289.446 867.208 275.126 867.208 257.461C867.208 239.796 852.88 225.475 835.206 225.475C817.532 225.475 803.204 239.796 803.204 257.461C803.204 275.126 817.532 289.446 835.206 289.446Z" fill="white" stroke="#3FB1B5" stroke-width="6" stroke-miterlimit="10"/>
<path d="M848.584 308.589H821.938L835.162 301.959L848.584 308.589Z" fill="white" stroke="#FFCF2D" stroke-width="6" stroke-miterlimit="10"/>
<path d="M882.636 308.677V699.09H870.58V670.673C870.58 664.351 865.445 659.218 859.119 659.218H673.19C666.864 659.218 661.729 664.351 661.729 670.673V699.09H649.805V308.677H882.636Z" stroke="#9A3B82" stroke-width="6" stroke-miterlimit="10" stroke-linecap="round"/>
<path d="M865.908 648.402H666.093C663.558 648.402 661.487 646.353 661.487 643.798V586.326C661.487 583.792 663.536 581.722 666.093 581.722H865.908C868.442 581.722 870.514 583.77 870.514 586.326V643.798C870.514 646.353 868.442 648.402 865.908 648.402Z" stroke="#3FB1B5" stroke-width="6" stroke-miterlimit="10"/>
<path d="M776.535 255.06V308.677H757.757L776.535 255.06Z" fill="#9A3B82"/>
<path d="M776.535 255.06L776.403 255.456L757.867 308.677H671.691L690.227 255.456L690.822 253.76C693.599 249.773 701.291 246.865 710.459 246.711C710.614 246.711 710.746 246.711 710.9 246.711C711.054 246.711 711.187 246.711 711.341 246.711C722.052 246.711 731.596 250.434 733.337 255.324C735.056 250.434 744.181 246.711 754.892 246.711C765.383 246.711 774.574 250.302 776.535 255.06Z" fill="white" stroke="#FFCF2D" stroke-width="6" stroke-miterlimit="10"/>
<path d="M733.315 255.324L714.603 307.576" stroke="#FFCF2D" stroke-width="6" stroke-miterlimit="10" stroke-linecap="round"/>
<path d="M714.559 308.016H671.691C673.278 303.06 682.182 299.249 692.894 299.249C703.649 299.249 712.972 303.06 714.559 308.016Z" fill="#FFCF2D"/>
<path d="M757.757 308.016H714.889C716.476 303.06 725.38 299.249 736.092 299.249C746.847 299.249 756.17 303.06 757.757 308.016Z" fill="#FFCF2D"/>
<path d="M751.652 598.75C751.652 597.031 753.041 595.622 754.782 595.622H778.166C779.885 595.622 781.296 597.009 781.296 598.75" stroke="#9A3B82" stroke-width="6" stroke-miterlimit="10" stroke-linecap="round"/>
<path d="M649.805 483.959H882.636" stroke="#9A3B82" stroke-width="6" stroke-miterlimit="10" stroke-linecap="round"/>
<path d="M649.805 396.307H882.636" stroke="#9A3B82" stroke-width="6" stroke-miterlimit="10" stroke-linecap="round"/>
<path d="M649.805 571.588H882.636" stroke="#9A3B82" stroke-width="6" stroke-miterlimit="10" stroke-linecap="round"/>
<path d="M678.457 226.819L649.805 308.677H882.636L911.288 226.819" stroke="#9A3B82" stroke-width="6" stroke-miterlimit="10" stroke-linecap="round" stroke-linejoin="round"/>
<path d="M937.427 678.074C937.427 682.502 936.612 686.754 935.113 690.697C932.931 696.424 927.399 700.169 921.25 700.169H874.591C868.464 700.169 862.91 696.424 860.75 690.697C859.251 686.754 858.436 682.502 858.436 678.074C858.436 665.298 865.202 654.019 875.539 647.279V639.833C875.539 643.093 885.567 645.737 897.91 645.737C910.274 645.737 920.28 643.093 920.28 639.833V647.301C930.661 654.019 937.427 665.298 937.427 678.074Z" fill="#FE5244"/>
<path d="M920.324 645.252V647.234C916.776 650.054 907.122 651.552 897.954 651.552C888.785 651.552 879.132 650.054 875.583 647.234V645.252C876.002 646.199 877.787 647.433 881.754 648.468C886.074 649.614 891.827 650.23 897.954 650.23C904.081 650.23 909.833 649.614 914.153 648.468C918.12 647.411 919.884 646.177 920.324 645.252Z" fill="white"/>
<path d="M920.324 639.833C920.324 643.093 910.296 645.737 897.954 645.737C885.611 645.737 875.583 643.093 875.583 639.833C875.583 639.414 875.737 639.018 876.046 638.621C878.162 635.956 887.154 633.929 897.954 633.929C908.753 633.929 917.746 635.934 919.862 638.621C920.148 639.018 920.324 639.414 920.324 639.833Z" fill="#66B0F0"/>
<path d="M868.001 668.712C869.559 668.712 870.822 667.45 870.822 665.893C870.822 664.335 869.559 663.073 868.001 663.073C866.443 663.073 865.18 664.335 865.18 665.893C865.18 667.45 866.443 668.712 868.001 668.712Z" stroke="#FFCF2D" stroke-width="6" stroke-miterlimit="10"/>
<path d="M877.567 675.651C879.125 675.651 880.388 674.389 880.388 672.832C880.388 671.274 879.125 670.012 877.567 670.012C876.009 670.012 874.746 671.274 874.746 672.832C874.746 674.389 876.009 675.651 877.567 675.651Z" stroke="#FFCF2D" stroke-width="6" stroke-miterlimit="10"/>
<path d="M889.468 667.413C891.026 667.413 892.289 666.15 892.289 664.593C892.289 663.036 891.026 661.773 889.468 661.773C887.91 661.773 886.647 663.036 886.647 664.593C886.647 666.15 887.91 667.413 889.468 667.413Z" stroke="#FFCF2D" stroke-width="6" stroke-miterlimit="10"/>
<path d="M887.793 686.137C889.351 686.137 890.614 684.874 890.614 683.317C890.614 681.76 889.351 680.498 887.793 680.498C886.235 680.498 884.972 681.76 884.972 683.317C884.972 684.874 886.235 686.137 887.793 686.137Z" stroke="#FFCF2D" stroke-width="6" stroke-miterlimit="10"/>
<path d="M877.214 694.354C878.772 694.354 880.035 693.091 880.035 691.534C880.035 689.977 878.772 688.714 877.214 688.714C875.656 688.714 874.393 689.977 874.393 691.534C874.393 693.091 875.656 694.354 877.214 694.354Z" stroke="#FFCF2D" stroke-width="6" stroke-miterlimit="10"/>
<path d="M866.547 686.137C868.105 686.137 869.368 684.874 869.368 683.317C869.368 681.76 868.105 680.498 866.547 680.498C864.989 680.498 863.726 681.76 863.726 683.317C863.726 684.874 864.989 686.137 866.547 686.137Z" stroke="#FFCF2D" stroke-width="6" stroke-miterlimit="10"/>
<path d="M879.109 658.249C880.668 658.249 881.931 656.986 881.931 655.429C881.931 653.872 880.668 652.609 879.109 652.609C877.551 652.609 876.288 653.872 876.288 655.429C876.288 656.986 877.551 658.249 879.109 658.249Z" stroke="#FFCF2D" stroke-width="6" stroke-miterlimit="10"/>
<path d="M901.568 660.386C903.126 660.386 904.389 659.123 904.389 657.566C904.389 656.009 903.126 654.746 901.568 654.746C900.01 654.746 898.747 656.009 898.747 657.566C898.747 659.123 900.01 660.386 901.568 660.386Z" stroke="#FFCF2D" stroke-width="6" stroke-miterlimit="10"/>
<path d="M899.21 677.48C900.768 677.48 902.031 676.217 902.031 674.66C902.031 673.103 900.768 671.84 899.21 671.84C897.652 671.84 896.389 673.103 896.389 674.66C896.389 676.217 897.652 677.48 899.21 677.48Z" stroke="#FFCF2D" stroke-width="6" stroke-miterlimit="10"/>
<path d="M907.365 688.714C908.923 688.714 910.186 687.452 910.186 685.895C910.186 684.337 908.923 683.075 907.365 683.075C905.807 683.075 904.544 684.337 904.544 685.895C904.544 687.452 905.807 688.714 907.365 688.714Z" stroke="#FFCF2D" stroke-width="6" stroke-miterlimit="10"/>
<path d="M896.786 697.173C898.344 697.173 899.607 695.911 899.607 694.354C899.607 692.796 898.344 691.534 896.786 691.534C895.227 691.534 893.964 692.796 893.964 694.354C893.964 695.911 895.227 697.173 896.786 697.173Z" stroke="#FFCF2D" stroke-width="6" stroke-miterlimit="10"/>
<path d="M910.384 670.739C911.942 670.739 913.205 669.477 913.205 667.919C913.205 666.362 911.942 665.1 910.384 665.1C908.826 665.1 907.563 666.362 907.563 667.919C907.563 669.477 908.826 670.739 910.384 670.739Z" stroke="#FFCF2D" stroke-width="6" stroke-miterlimit="10"/>
<path d="M918.561 659.174C920.119 659.174 921.382 657.912 921.382 656.354C921.382 654.797 920.119 653.535 918.561 653.535C917.003 653.535 915.74 654.797 915.74 656.354C915.74 657.912 917.003 659.174 918.561 659.174Z" stroke="#FFCF2D" stroke-width="6" stroke-miterlimit="10"/>
<path d="M927.862 668.536C929.42 668.536 930.683 667.274 930.683 665.716C930.683 664.159 929.42 662.897 927.862 662.897C926.304 662.897 925.041 664.159 925.041 665.716C925.041 667.274 926.304 668.536 927.862 668.536Z" stroke="#FFCF2D" stroke-width="6" stroke-miterlimit="10"/>
<path d="M917.217 677.766C918.775 677.766 920.038 676.504 920.038 674.946C920.038 673.389 918.775 672.127 917.217 672.127C915.659 672.127 914.396 673.389 914.396 674.946C914.396 676.504 915.659 677.766 917.217 677.766Z" stroke="#FFCF2D" stroke-width="6" stroke-miterlimit="10"/>
<path d="M929.956 683.67C931.514 683.67 932.777 682.407 932.777 680.85C932.777 679.293 931.514 678.03 929.956 678.03C928.398 678.03 927.135 679.293 927.135 680.85C927.135 682.407 928.398 683.67 929.956 683.67Z" stroke="#FFCF2D" stroke-width="6" stroke-miterlimit="10"/>
<path d="M921.382 694.508C922.94 694.508 924.203 693.245 924.203 691.688C924.203 690.131 922.94 688.868 921.382 688.868C919.824 688.868 918.561 690.131 918.561 691.688C918.561 693.245 919.824 694.508 921.382 694.508Z" stroke="#FFCF2D" stroke-width="6" stroke-miterlimit="10"/>
<path d="M947.367 605.512C947.367 605.512 968.306 594.212 971.766 613.949C975.777 636.749 948.536 656.817 948.536 656.817C948.536 656.817 942.673 642.3 926.958 629.788C913.36 618.972 924.644 590.291 947.367 605.512Z" fill="white" stroke="#FFCF2D" stroke-width="6" stroke-miterlimit="10"/>
<path d="M906.263 580.378C916.203 580.466 930.485 560.288 916.996 538.149C900.709 511.406 897.91 495.92 897.91 495.92C897.91 495.92 873.952 527.597 878.029 551.895C882.504 578.505 906.263 580.378 906.263 580.378Z" fill="#FFCF2D"/>
<path d="M907.982 566.94C922.506 570.773 936.303 561.94 936.59 541.806C937.097 506.208 943.841 494.621 943.841 494.621C943.841 494.621 898.593 510.9 891.739 536.188C885.215 560.288 907.982 566.94 907.982 566.94Z" fill="white" stroke="#FFCF2D" stroke-width="6" stroke-miterlimit="10"/>
<path d="M847.284 590.379C846.755 590.423 846.204 590.467 845.609 590.511C814.356 592.846 805.364 621.439 805.364 621.439C805.364 621.439 803.446 619.368 803.843 612.209C804.592 593.749 821.585 574.672 840.98 586.788C843.14 588.154 845.256 589.321 847.284 590.379Z" fill="#FFCF2D"/>
<path d="M882.724 597.406C877.214 597.758 864.629 599.278 847.284 590.379C845.256 589.343 843.14 588.154 840.98 586.788C821.585 574.672 805.033 593.749 804.284 612.209C804.24 613.112 804.46 614.015 804.504 614.896C802.675 598.86 802.719 558.944 851.273 560.288C884.641 561.257 882.724 597.406 882.724 597.406Z" fill="white" stroke="#FFCF2D" stroke-width="6" stroke-miterlimit="10"/>
<path d="M890.658 638.665C890.658 638.665 896.411 558.547 818.676 569.011" stroke="#FFCF2D" stroke-width="6" stroke-miterlimit="10"/>
<path d="M943.841 494.621C894.868 544.625 903.993 638.665 903.993 638.665C898.835 602.693 930.485 566.94 947.345 604.565C952.37 615.756 948.513 656.795 948.513 656.795" stroke="#FFCF2D" stroke-width="6" stroke-miterlimit="10"/>
<path d="M218.196 575.686L211.628 581.435C210.57 580.179 209.622 578.792 208.807 577.272L167.857 501.009C166.138 497.815 168.452 493.96 172.066 493.96H177.797C182.381 493.96 186.569 496.471 188.729 500.502L220.929 560.464C223.706 565.575 222.56 571.897 218.196 575.686Z" fill="#FFCF2D"/>
<path d="M329.674 577.36L234.395 596.921V594.939C234.395 585.444 241.074 577.272 250.374 575.355L311.756 562.755C321.013 560.86 329.674 567.932 329.674 577.36Z" fill="#FFCF2D"/>
<path d="M318.875 699.09V603.684C318.875 595.776 311.624 589.872 303.865 591.458L244.027 603.728C236.908 605.182 231.045 610.16 228.445 616.945L196.861 699.09" stroke="#9A3B82" stroke-width="6" stroke-miterlimit="10" stroke-linecap="round"/>
<path d="M167.614 500.59L214.141 587.229C218.13 594.652 226.505 598.573 234.77 596.877L329.895 577.36" stroke="#9A3B82" stroke-width="6" stroke-miterlimit="10" stroke-linecap="round"/>
<path d="M363.462 506.604H282.95V517.354H363.462V506.604Z" fill="#66B0F0"/>
<path d="M348.783 494.929C349.753 495.832 350.348 497.462 350.348 498.828C350.348 501.56 347.968 504.357 345.014 504.357H271.577C271.577 505.635 272.613 506.67 273.891 506.67H362.514C364.894 506.67 367.032 505.789 368.597 504.335C370.162 502.903 371.11 500.899 371.11 498.696C371.11 494.29 367.253 490.743 362.514 490.743H273.891C272.613 490.743 271.577 491.779 271.577 493.056V493.475H345.014C346.491 493.497 347.813 494.048 348.783 494.929Z" fill="#FE5244"/>
<path d="M276.889 493.497V504.159H271.599V505.04H345.279C346.094 505.04 346.888 504.886 347.593 504.6C348.386 504.291 349.092 503.806 349.665 503.234C350.789 502.11 351.494 500.546 351.494 498.828C351.494 495.392 348.695 492.616 345.279 492.616H271.599V493.497H276.889Z" fill="#FE5244"/>
<path d="M274.839 493.497V504.159H345.014C347.968 504.159 350.348 501.78 350.348 498.828C350.348 497.352 349.753 496.03 348.783 495.061C347.813 494.092 346.491 493.497 345.014 493.497H274.839Z" fill="white"/>
<path d="M274.839 493.497V504.159" stroke="#FE5244" stroke-width="5" stroke-miterlimit="10"/>
<path d="M335.206 501.053V509.952H341.356V502.198C341.356 500.348 342.854 498.85 344.706 498.85H347.439V497.705H338.534C336.727 497.705 335.206 499.202 335.206 501.053Z" fill="#FFCF2D"/>
<path d="M237.746 526.562C237.746 521.87 241.559 518.059 246.253 518.059H413.537C418.231 518.059 422.044 521.87 422.044 526.562" stroke="#9A3B82" stroke-width="6" stroke-miterlimit="10" stroke-linecap="round"/>
<path d="M422.176 699.09L374.945 534.669C372.851 527.399 365.644 522.333 357.401 522.333H302.367C294.124 522.333 286.917 527.399 284.823 534.669L237.613 699.09" stroke="#9A3B82" stroke-width="6" stroke-miterlimit="10" stroke-linecap="round"/>
<path d="M461.826 670.629V694.596C461.826 697.085 463.832 699.09 466.322 699.09H526.271C526.271 699.09 526.624 687.965 517.499 684.859C502.005 679.594 494.776 670.629 494.776 670.629H461.826Z" fill="white" stroke="#33649D" stroke-width="6" stroke-miterlimit="10"/>
<path d="M495.173 682.899C497.619 682.216 506.435 677.348 503.416 674.33C501.983 672.898 498.545 674.33 498.545 674.33" stroke="#33649D" stroke-width="6" stroke-miterlimit="10"/>
<path d="M504.209 686.203C506.655 685.52 515.119 680.079 511.791 677.414C509.278 675.387 505.509 679.308 505.509 679.308" stroke="#33649D" stroke-width="6" stroke-miterlimit="10"/>
<path d="M496.627 672.567L461.826 683.383V670.629H494.798C494.798 670.629 495.393 671.378 496.627 672.567Z" fill="#33649D"/>
<path d="M536.982 670.629V694.596C536.982 697.085 538.988 699.09 541.479 699.09H601.428C601.428 699.09 601.78 687.965 592.656 684.859C577.161 679.594 569.932 670.629 569.932 670.629H536.982Z" fill="white" stroke="#33649D" stroke-width="6" stroke-miterlimit="10"/>
<path d="M570.329 682.899C572.775 682.216 581.591 677.348 578.572 674.33C577.139 672.898 573.701 674.33 573.701 674.33" stroke="#33649D" stroke-width="6" stroke-miterlimit="10"/>
<path d="M579.365 686.203C581.812 685.52 590.275 680.079 586.947 677.414C584.435 675.387 580.666 679.308 580.666 679.308" stroke="#33649D" stroke-width="6" stroke-miterlimit="10"/>
<path d="M571.784 672.567L536.982 683.383V670.629H569.954C569.954 670.629 570.55 671.378 571.784 672.567Z" fill="#33649D"/>
<path d="M478.026 432.059L456.316 659.218H501.719L524.53 549.141L533.853 572.602V659.218H581.129V562.094L555.915 432.059H478.026Z" fill="#544E63"/>
<path d="M501.674 486.624L480.56 659.218" stroke="#544E63" stroke-width="6" stroke-miterlimit="10"/>
<path d="M556.664 659.218V562.094L527.042 443.074" stroke="#544E63" stroke-width="6" stroke-miterlimit="10"/>
<path d="M533.192 572.602L504.892 490.457C503.923 487.637 501.256 485.743 498.258 485.743" stroke="white" stroke-width="6" stroke-miterlimit="10"/>
<path d="M474.433 469.618L478.026 432.059H555.915L558.141 443.602L474.433 469.618Z" fill="#544E63"/>
<path d="M581.217 670.629H533.677C531.891 670.629 530.437 669.175 530.437 667.391V662.456C530.437 660.672 531.891 659.218 533.677 659.218H581.217C583.002 659.218 584.457 660.672 584.457 662.456V667.391C584.435 669.175 583.002 670.629 581.217 670.629Z" fill="#544E63"/>
<path d="M502.534 670.629H454.994C453.208 670.629 451.754 669.175 451.754 667.391V662.456C451.754 660.672 453.208 659.218 454.994 659.218H502.534C504.319 659.218 505.774 660.672 505.774 662.456V667.391C505.752 669.175 504.319 670.629 502.534 670.629Z" fill="#544E63"/>
<path d="M629.418 438.712L644.317 494.422L570.042 514.27L555.121 458.516C554.659 456.775 553.535 455.41 552.102 454.573C550.669 453.735 548.906 453.449 547.165 453.912C543.705 454.837 541.633 458.406 542.559 461.864L557.48 517.618L555.849 518.059L540.95 462.349C539.76 457.921 542.316 453.383 546.68 452.061C546.768 452.039 546.856 452.017 546.945 451.995L619.06 432.72C623.578 431.531 628.206 434.218 629.418 438.712Z" fill="#66B0F0"/>
<path d="M556.774 458.141L571.673 513.851L570.042 514.292L555.121 458.538C554.659 456.797 553.535 455.432 552.102 454.595C550.669 453.758 548.906 453.471 547.165 453.934C543.705 454.859 541.633 458.428 542.559 461.886L557.48 517.64L555.849 518.081L540.95 462.371C539.76 457.943 542.316 453.405 546.68 452.083C551.11 451.048 555.584 453.713 556.774 458.141Z" fill="#9A3B82"/>
<path d="M555.121 458.516L569.117 510.856L556.554 514.204L542.559 461.864C541.633 458.406 543.683 454.837 547.165 453.912C548.906 453.449 550.669 453.736 552.102 454.573C553.535 455.41 554.659 456.775 555.121 458.516Z" fill="white"/>
<path d="M629.639 468.23L595.851 479.861L569.183 432.059H465.815C448.249 432.059 435.114 415.912 438.706 398.73L449.462 347.095C452.834 330.926 467.094 319.339 483.602 319.339H554.284C571.409 319.339 586 331.763 588.71 348.659L599.356 398.928L629.639 468.23Z" fill="#FFCF2D" stroke="white" stroke-width="6" stroke-miterlimit="10"/>
<path d="M460.305 431.509C448.139 429.063 439.103 418.71 438.177 406.506C439.103 405.867 440.139 405.317 441.241 404.92C449.241 401.968 458.388 406.815 461.716 415.736C463.766 421.331 463.06 427.191 460.305 431.509Z" fill="white"/>
<path d="M537.269 288.367V319.361H503.041L510.931 298.742L537.269 288.367Z" fill="#E57281"/>
<path d="M545.137 275.326C545.115 275.326 545.071 275.348 545.049 275.348L534.889 278.036C531.252 279.005 528.453 281.692 527.263 285.085H523.362C520.893 285.085 518.888 287.089 518.888 289.557V289.623C518.888 291.958 520.673 293.874 522.965 294.072C522.943 294.094 522.943 294.094 522.943 294.094C522.943 294.094 521.136 302.686 510.579 299.8C510.579 299.8 510.997 277.198 511.438 270.171C511.813 264.378 542.559 253.408 545.402 258.078C547.914 262.219 545.005 264.158 542.537 265.017C546.901 264.092 555.144 262.858 555.981 266.537C556.951 270.81 548.245 274.511 545.137 275.326Z" fill="#9A3B82"/>
<path d="M547.121 291.165H546.041L546.349 296.451C546.57 300.24 543.528 303.457 539.737 303.457H534.977C530.393 303.457 526.668 299.734 526.668 295.152V294.116H523.384C520.915 294.116 518.91 292.112 518.91 289.645V289.579C518.91 287.111 520.915 285.107 523.384 285.107H527.285C528.475 281.714 531.274 279.005 534.911 278.058L545.071 275.37L548.553 289.314C548.906 290.195 548.069 291.165 547.121 291.165Z" fill="#E57281"/>
<path d="M527.704 295.57C527.241 300.417 532.09 303.875 536.674 303.875" stroke="#9A3B82" stroke-width="5" stroke-miterlimit="10" stroke-linecap="round"/>
<path d="M525.918 290.394C525.918 288.675 524.53 287.288 522.811 287.288" stroke="#9A3B82" stroke-width="5" stroke-miterlimit="10" stroke-linecap="round"/>
<path d="M543.374 287.244C543.824 287.244 544.19 286.484 544.19 285.547C544.19 284.611 543.824 283.851 543.374 283.851C542.924 283.851 542.559 284.611 542.559 285.547C542.559 286.484 542.924 287.244 543.374 287.244Z" fill="#9A3B82"/>
<path d="M539.848 281.979C539.848 281.979 542.559 279.908 546.438 279.908" stroke="#9A3B82" stroke-width="5" stroke-miterlimit="10" stroke-linecap="round"/>
<path d="M529.357 446.18C529.357 446.18 556.356 447.347 565.855 425.693L560.83 416.507L545.821 422.279L529.357 446.18Z" fill="white" stroke="#4D24AB" stroke-width="6" stroke-miterlimit="10"/>
<path d="M550.978 313.679C549.677 313.789 548.487 314.362 547.606 315.243C546.636 316.212 546.019 317.556 546.019 319.054V427.589C546.019 437.942 537.622 446.335 527.263 446.335H485.629C474.433 446.335 465.793 436.621 466.983 425.584V425.562L481.971 322.535C482.72 317.446 487.062 313.679 492.219 313.679H550.978Z" fill="#4D24AB" stroke="#4D24AB" stroke-width="6" stroke-miterlimit="10"/>
<path d="M546.792 313.678C545.491 313.788 544.301 314.361 543.419 315.242C542.604 316.057 542.053 317.114 541.899 318.304C541.877 318.546 541.855 318.788 541.855 319.031L540.973 327.336L530.394 427.566C530.394 437.919 521.997 446.312 511.638 446.312H485.653C474.456 446.312 465.817 436.597 467.007 425.561V425.539L473.773 378.971L481.994 322.511C482.06 322.027 482.17 321.542 482.303 321.057C483.581 316.718 487.592 313.656 492.221 313.656H546.792V313.678Z" fill="white" stroke="#4D24AB" stroke-width="6" stroke-miterlimit="10"/>
<path d="M537.511 335.288L533.566 364.872C532.266 370.93 527.549 374.168 520.717 375.27L473.992 382.055L480.803 335.266H537.511V335.288Z" fill="#33649D"/>
<path d="M545.115 313.678H543.947C541.831 313.656 539.98 315.154 539.561 317.246L532.685 361.59C531.384 367.648 526.029 371.987 519.835 371.987H476.835C471.634 371.987 467.755 367.185 468.879 362.097L477.166 324.472C478.555 318.172 484.153 313.678 490.61 313.678H545.115Z" fill="#4D24AB" stroke="#4D24AB" stroke-width="6" stroke-miterlimit="10"/>
<path d="M509.675 384.323L520.629 317.379C520.849 316.035 522.017 315.022 523.384 315.022C525.103 315.022 526.425 316.564 526.139 318.282L515.185 385.227C514.964 386.57 513.796 387.584 512.43 387.584C510.711 387.584 509.388 386.042 509.675 384.323Z" fill="white" stroke="#4D24AB" stroke-width="6" stroke-miterlimit="10"/>
<path d="M485.188 384.323L496.142 317.379C496.363 316.035 497.531 315.022 498.897 315.022C500.617 315.022 501.939 316.564 501.652 318.282L490.698 385.227C490.478 386.57 489.31 387.584 487.943 387.584C486.224 387.584 484.902 386.042 485.188 384.323Z" fill="white" stroke="#4D24AB" stroke-width="6" stroke-miterlimit="10"/>
<path d="M556.818 319.383L546.041 319.427V319.053C546.041 317.555 546.636 316.211 547.628 315.242C548.509 314.361 549.678 313.788 551 313.678H551.882C554.592 313.898 556.73 316.189 556.818 319.383Z" fill="white" stroke="#4D24AB" stroke-width="6" stroke-miterlimit="10"/>
<path d="M625.606 469.618L634.687 493.034C636.141 496.801 634.025 500.987 630.146 502.066L610.2 507.529C608.988 507.86 607.71 507.573 606.762 506.758L604.734 504.996L608.878 503.895C610.707 503.41 611.941 501.714 611.853 499.819L611.39 495.149C611.302 493.056 609.605 491.382 607.511 491.316H607.732C605.197 491.228 602.729 489.664 601.737 487.329L598.563 478.892L625.606 469.618Z" fill="#E57281"/>
<path d="M605.152 505.459L608.414 504.577C610.244 504.093 611.478 502.617 611.39 500.722L611.147 495.612C611.059 493.519 609.362 491.845 607.268 491.779C604.734 491.691 602.485 490.127 601.494 487.792L598.099 479.795" stroke="white" stroke-width="6" stroke-miterlimit="10" stroke-linecap="round"/>
<path d="M615.82 505.415C618.156 504.798 619.743 502.639 619.633 500.216L619.324 493.695" stroke="white" stroke-width="6" stroke-miterlimit="10" stroke-linecap="round"/>
<path d="M624.261 503.234C626.597 502.617 628.184 500.458 628.074 498.035L627.765 491.514" stroke="white" stroke-width="6" stroke-miterlimit="10" stroke-linecap="round"/>
<path d="M548.752 371.987L554.086 399.876C554.989 404.634 556.664 409.238 559.023 413.467L595.829 479.861L629.617 468.23" stroke="white" stroke-width="6" stroke-miterlimit="10"/>
<path d="M571.078 435.231L559.023 413.467C556.995 409.789 555.474 405.867 554.504 401.792C555.65 401.418 556.841 401.153 558.097 401.043C567.618 400.206 576.059 408.202 576.963 418.886C577.492 425.363 575.134 431.332 571.078 435.231Z" fill="white"/>
</svg>
